<svg xmlns="http://www.w3.org/2000/svg" width="36" height="22" viewBox="0 0 36 22" fill="none">
  <path d="M18 11C18 11 14 4 9 4C5.13 4 2 7.13 2 11C2 14.87 5.13 18 9 18C14 18 18 11 18 11Z" stroke="url(#lg1)" stroke-width="2.2" stroke-linecap="round" fill="none"/>
  <path d="M18 11C18 11 22 4 27 4C30.87 4 34 7.13 34 11C34 14.87 30.87 18 27 18C22 18 18 11 18 11Z" stroke="url(#lg2)" stroke-width="2.2" stroke-linecap="round" fill="none"/>
  <defs>
    <linearGradient id="lg1" x1="2" y1="11" x2="18" y2="11" gradientUnits="userSpaceOnUse"><stop stop-color="#a78bfa"/><stop offset="1" stop-color="#60a5fa"/></linearGradient>
    <linearGradient id="lg2" x1="18" y1="11" x2="34" y2="11" gradientUnits="userSpaceOnUse"><stop stop-color="#60a5fa"/><stop offset="1" stop-color="#a78bfa"/></linearGradient>
  </defs>
</svg>